<svg viewBox="55 35 90 120" xmlns="http://www.w3.org/2000/svg" fill="none"><path d="M130.048 121.459c-.671 16.019-13.864 28.8-30.048 28.8-16.613 0-30.08-13.92-30.08-30.08 0-2.16-.039-6.476 3.2-13.76 1.938-4.358 3.154-7.096 3.84-9.6.377-1.375 1.11-3.56 3.2 0 1.232 2.1 1.28 5.12 1.28 5.12s4.585-3.518 7.68-10.24c4.537-9.853.917-15.743-.32-19.84-.428-1.416-.697-3.963 2.24-2.88 2.993 1.105 10.904 6.643 15.04 12.48 5.902 8.332 8 16.32 8 16.32s1.89-2.345 2.56-4.8c.757-2.77.768-5.516 3.2-2.559 2.312 2.812 5.747 8.096 7.68 13.12 3.51 9.123 2.528 17.919 2.528 17.919" fill="#0d4678" opacity=".15"/><path d="M100 150.26c-11.488 0-20.8-9.312-20.8-20.8 0-6.932 2.793-11.14 8.607-16.847 3.722-3.654 7.206-8.142 8.686-11.198.292-.602.955-3.737 3.513-.066 1.342 1.925 3.445 5.349 4.794 8.27 2.325 5.039 2.88 9.92 2.88 9.92s2.279-1.342 3.84-4.8c.503-1.113 1.521-5.332 4.366-1.114 2.087 3.095 4.955 8.66 4.914 15.835 0 11.488-9.313 20.8-20.8 20.8" fill="#0b66a9" opacity=".3"/><path d="M100.32 127.54c2.96 0 2.96 5.481 6.72 12.8 2.504 4.873-1.241 9.92-6.72 9.92S92 145.819 92 140.34s5.36-12.8 8.32-12.8" fill="#6db5f1" opacity=".5"/><circle cx="100" cy="100" r="8" fill="#000"/><path d="m92 100-10-5m26 5 10-5m-26 8-10 5m26-5 10 5" stroke-width="3" stroke-linecap="round" stroke="#000"/><path d="m100 40 40 20v45q0 30-40 45-40-15-40-45V60Z" stroke-width="8" stroke-linejoin="round" stroke="#092e5c"/></svg>